<?xml version="1.0" standalone="no"?>
<!DOCTYPE svg PUBLIC "-//W3C//DTD SVG 20010904//EN"
 "http://www.w3.org/TR/2001/REC-SVG-20010904/DTD/svg10.dtd">
<svg version="1.0" xmlns="http://www.w3.org/2000/svg"
 width="512.000000pt" height="512.000000pt" viewBox="0 0 512.000000 512.000000"
 preserveAspectRatio="xMidYMid meet">

<g transform="translate(0.000000,512.000000) scale(0.100000,-0.100000)"
fill="#c62828" stroke="none">
<path d="M570 4560 c-112 -24 -216 -104 -267 -208 l-28 -57 0 -1585 0 -1585
29 -60 c36 -73 105 -142 172 -173 40 -18 1942 -595 2051 -622 18 -4 48 -4 66
0 127 31 2022 607 2060 627 66 33 128 97 163 169 l29 59 3 1061 2 1061 -22 33
c-34 50 -71 72 -125 77 -59 5 -117 -25 -147 -77 -21 -35 -21 -46 -24 -1056 -2
-954 -4 -1022 -20 -1036 -9 -8 -375 -122 -812 -253 -437 -130 -837 -250 -888
-265 l-92 -28 2 1540 3 1540 879 264 c1021 306 926 291 926 146 0 -108 11
-146 52 -189 74 -77 204 -57 253 37 20 40 21 258 0 325 -32 107 -143 217 -248
246 -111 32 -105 33 -1099 -265 l-926 -278 -924 276 c-507 151 -945 278 -973
280 -27 3 -70 1 -95 -4z m965 -579 l860 -259 3 -1540 2 -1540 -92 28 c-51 15
-451 135 -888 265 -437 131 -803 245 -812 253 -17 14 -18 99 -18 1523 l0 1508
22 15 c12 9 31 13 42 10 12 -3 408 -121 881 -263z"/>
<path d="M1370 3343 c-213 -58 -352 -241 -352 -463 0 -178 82 -321 235 -414
63 -37 167 -66 241 -66 207 0 396 142 458 343 27 89 22 224 -11 310 -48 124
-162 234 -288 279 -81 28 -201 33 -283 11z m208 -330 c47 -34 72 -81 72 -133
0 -119 -128 -196 -230 -139 -149 84 -86 310 83 296 27 -2 60 -13 75 -24z"/>
<path d="M1370 2283 c-133 -22 -289 -110 -390 -220 -143 -156 -226 -454 -154
-550 39 -52 71 -68 134 -68 97 0 148 51 160 162 10 95 33 159 78 217 136 179
400 197 559 38 59 -60 92 -132 108 -239 17 -118 60 -170 147 -180 81 -9 154
48 173 134 3 17 2 66 -4 107 -50 355 -340 610 -690 605 -53 -1 -107 -4 -121
-6z"/>
</g>
<g transform="translate(0.000000,512.000000) scale(0.100000,-0.100000)"
fill="#c62828" stroke="none">
<path d="M3147 3136 c-49 -18 -64 -32 -89 -80 -37 -73 -13 -153 62 -203 l33
-23 469 0 c413 0 474 2 504 16 50 24 77 68 82 133 5 70 -22 115 -88 149 -44
22 -47 22 -490 22 -346 -1 -453 -4 -483 -14z"/>
<path d="M3120 2268 c-48 -33 -72 -70 -77 -120 -7 -58 23 -118 74 -149 l38
-24 460 -3 460 -3 45 23 c66 34 93 79 88 149 -5 65 -32 109 -82 133 -30 14
-91 16 -504 16 l-469 0 -33 -22z"/>
</g>
</svg>