<svg xmlns="http://www.w3.org/2000/svg" width="24" height="24" viewBox="0 0 24 24" preserveAspectRatio="xMidYMid meet">
  <g transform="translate(0,24) scale(0.0046875,-0.0046875)" fill="#d4202e" stroke="none">
    <path d="M785 4904 c-11 -2 -45 -9 -75 -15 -169 -33 -351 -177 -428 -339 -68
    -143 -67 -137 -67 -710 0 -573 -1 -567 67 -710 57 -119 169 -231 289 -288 142
    -67 137 -67 709 -67 573 0 567 -1 710 67 120 57 231 168 288 288 68 143 67
    137 67 710 0 573 1 567 -67 710 -54 114 -168 229 -278 284 -145 71 -130 69
    -690 72 -278 1 -514 0 -525 -2z"/>
    <path d="M3740 4668 c-25 -14 -58 -44 -75 -67 l-30 -43 -5 -251 -5 -252 -252
    -5 -251 -5 -43 -30 c-64 -45 -91 -104 -87 -186 4 -77 30 -123 92 -167 l39 -27
    251 -5 251 -5 5 -251 c5 -247 5 -251 30 -287 14 -21 43 -50 64 -65 35 -24 49
    -27 116 -27 68 0 81 3 118 29 23 16 52 45 65 65 21 34 22 49 27 286 l5 250
    252 5 251 5 44 31 c119 87 119 261 0 348 l-44 31 -251 5 -252 5 -5 250 c-5
    237 -6 252 -27 286 -38 61 -95 93 -172 97 -55 3 -74 -1 -111 -20z"/>
    <path d="M785 2344 c-11 -2 -45 -9 -75 -15 -169 -33 -351 -177 -428 -339 -68
    -143 -67 -137 -67 -710 0 -573 -1 -567 67 -710 57 -119 169 -231 289 -288 142
    -67 137 -67 709 -67 573 0 567 -1 710 67 120 57 231 168 288 288 68 143 67
    137 67 710 0 573 1 567 -67 710 -54 114 -168 229 -278 284 -145 71 -130 69
    -690 72 -278 1 -514 0 -525 -2z"/>
    <path d="M3345 2344 c-11 -2 -45 -9 -75 -15 -169 -33 -351 -177 -428 -339 -68
    -143 -67 -137 -67 -710 0 -573 -1 -567 67 -710 57 -119 169 -231 289 -288 142
    -67 137 -67 709 -67 573 0 567 -1 710 67 120 57 231 168 288 288 68 143 67
    137 67 710 0 573 1 567 -67 710 -54 114 -168 229 -278 284 -145 71 -130 69
    -690 72 -278 1 -514 0 -525 -2z"/>
  </g>
</svg>