<?xml version="1.0" encoding="UTF-8"?>
<!DOCTYPE svg PUBLIC "-//W3C//DTD SVG 1.1//EN" "http://www.w3.org/Graphics/SVG/1.1/DTD/svg11.dtd">
<!-- Creator: CorelDRAW 2021.5 -->
<svg xmlns="http://www.w3.org/2000/svg" xml:space="preserve" width="11.6929in" height="8.26772in" version="1.1" style="shape-rendering:geometricPrecision; text-rendering:geometricPrecision; image-rendering:optimizeQuality; fill-rule:evenodd; clip-rule:evenodd"
viewBox="0 0 11692.91 8267.72"
 xmlns:xlink="http://www.w3.org/1999/xlink"
 xmlns:xodm="http://www.corel.com/coreldraw/odm/2003">
 <defs>
  <style type="text/css">
   <![CDATA[
    .fil10 {fill:black;fill-rule:nonzero}
    .fil9 {fill:#ED0226;fill-rule:nonzero}
    .fil4 {fill:url(#id0)}
    .fil5 {fill:url(#id1)}
    .fil2 {fill:url(#id2)}
    .fil1 {fill:url(#id3)}
    .fil8 {fill:url(#id4)}
    .fil7 {fill:url(#id5)}
    .fil3 {fill:url(#id6)}
    .fil6 {fill:url(#id7)}
    .fil0 {fill:url(#id8)}
   ]]>
  </style>
  <linearGradient id="id0" gradientUnits="userSpaceOnUse" x1="5704.01" y1="5146.24" x2="5906.43" y2="3369.33">
   <stop offset="0" style="stop-opacity:1; stop-color:#FF5900"/>
   <stop offset="1" style="stop-opacity:1; stop-color:#ED0226"/>
  </linearGradient>
  <linearGradient id="id1" gradientUnits="userSpaceOnUse" xlink:href="#id0" x1="5704.02" y1="5146.24" x2="5906.44" y2="3369.33">
  </linearGradient>
  <linearGradient id="id2" gradientUnits="userSpaceOnUse" xlink:href="#id0" x1="5694.29" y1="5109.24" x2="5925.18" y2="3335.8">
  </linearGradient>
  <linearGradient id="id3" gradientUnits="userSpaceOnUse" xlink:href="#id0" x1="5704.02" y1="5146.24" x2="5906.44" y2="3369.33">
  </linearGradient>
  <linearGradient id="id4" gradientUnits="userSpaceOnUse" xlink:href="#id0" x1="5563.39" y1="5127.12" x2="5840.25" y2="3360.28">
  </linearGradient>
  <linearGradient id="id5" gradientUnits="userSpaceOnUse" xlink:href="#id0" x1="5563.39" y1="5127.12" x2="5840.25" y2="3360.28">
  </linearGradient>
  <linearGradient id="id6" gradientUnits="userSpaceOnUse" xlink:href="#id0" x1="5694.29" y1="5109.24" x2="5925.18" y2="3335.8">
  </linearGradient>
  <linearGradient id="id7" gradientUnits="userSpaceOnUse" xlink:href="#id0" x1="5694.29" y1="5109.24" x2="5925.18" y2="3335.8">
  </linearGradient>
  <linearGradient id="id8" gradientUnits="userSpaceOnUse" xlink:href="#id0" x1="5704.02" y1="5146.24" x2="5906.44" y2="3369.33">
  </linearGradient>
 </defs>
 <g id="Layer_x0020_1">
  <metadata id="CorelCorpID_0Corel-Layer"/>
  <g id="_2435265397136">
   <g>
    <path class="fil0" d="M5856.76 5369.33c-1034.09,-1435.88 -1348.61,-3286.3 -855.39,-4981.59 35.91,806.9 258.35,1565.29 625.25,2233.07 664.74,-628.74 1503.5,-1075.41 2436.44,-1260.2 -1263.62,908.09 -2112.16,2357.43 -2206.3,4008.71z"/>
    <path class="fil1" d="M5448.87 4952.7c-1084.59,-406.96 -1967.28,-1226.86 -2456.57,-2268.22 407.93,428.38 889.58,785.94 1424.58,1052.32 36.64,-425.36 125.47,-835.81 260.03,-1224.91 46.67,893.86 323.35,1726.82 771.95,2440.8z"/>
    <path class="fil2" d="M6005.98 5327.18c25.99,-1107.38 466.22,-2152.35 1243.67,-2942.12 -222.01,409.57 -363.96,870.45 -403.7,1362.87 611.11,-135.21 1258.04,-100.37 1851.1,99.61 -1085.21,101.83 -2049.94,655.54 -2691.07,1479.64z"/>
    <polygon class="fil3" points="7696.21,3511.29 7509.66,3091.07 7061.5,2974.02 7248.05,3394.24 "/>
    <path class="fil4" d="M4396.85 3063.06c18.15,36.5 28.37,77.65 28.37,121.2 0,150.51 -122.02,272.52 -272.53,272.52 -135.02,0 -247.11,-98.19 -268.74,-227.06l274.77 48.28 238.13 -214.94z"/>
    <polygon class="fil5" points="4485.45,2909.9 4031.77,2835.37 3688.06,3145.88 4141.75,3220.42 "/>
    <path class="fil6" d="M7481.27 3498.58c-50.13,75.41 -136.41,124.53 -233.68,122.97 -151.91,-2.44 -273.07,-127.56 -270.64,-279.46 1.39,-86.79 42.83,-163.56 106.43,-212.95l124.83 296.51 273.06 72.93z"/>
    <polygon class="fil7" points="6463.93,1748.01 5956.78,1348.92 5323.87,1497.66 5831.02,1896.75 "/>
    <path class="fil8" d="M6188.86 1873.23c-12.74,126.46 -87.59,244.02 -209.31,305.88 -190.11,96.62 -422.54,20.84 -519.16,-169.26 -55.2,-108.61 -54.14,-231.06 -7.62,-334.07l349.4 286.07 386.69 -88.62z"/>
   </g>
   <g>
    <polygon class="fil9" points="2409.06,7064.27 2409.06,5958.97 3148.03,5958.97 3148.03,6161.96 2635.83,6161.96 2635.83,6395.07 3117.9,6395.07 3117.9,6598.05 2635.83,6598.05 2635.83,6861.29 3148.03,6861.29 3148.03,7064.27 "/>
    <path class="fil10" d="M3653.9 7086.47c-120.52,0 -219.1,-31.19 -295.75,-93.56 -76.64,-62.38 -123.42,-145.37 -140.33,-248.98l222.01 -55.5c11.63,65.54 37.01,114.7 76.11,147.47 39.12,32.78 87.76,49.16 145.9,49.16 29.6,0 56.55,-5.02 80.87,-15.06 24.31,-10.04 43.34,-24.58 57.09,-43.61 13.74,-19.04 20.61,-41.76 20.61,-68.19 0,-24.31 -7.14,-45.73 -21.41,-64.23 -14.28,-18.5 -36.74,-35.67 -67.39,-51.53 -30.67,-15.86 -69.77,-32.78 -117.35,-50.75 -71.89,-28.54 -131.61,-58.94 -179.19,-91.18 -47.57,-32.25 -82.73,-69.51 -105.46,-111.8 -22.72,-42.28 -34.09,-91.45 -34.09,-147.48 0,-60.26 14.8,-113.64 44.41,-160.17 29.6,-46.52 71.1,-82.99 124.48,-109.41 53.39,-26.43 115.49,-39.65 186.33,-39.65 76.11,0 143.25,17.44 201.39,52.33 58.15,34.89 105.19,87.22 141.13,156.99l-180.78 109.42c-21.15,-38.06 -45.99,-67.13 -74.53,-87.22 -28.54,-20.09 -60.26,-30.13 -95.15,-30.13 -22.2,0 -42.28,4.22 -60.26,12.69 -17.97,8.45 -32.5,20.61 -43.61,36.47 -11.1,15.86 -16.66,33.83 -16.66,53.91 0,21.15 6.35,40.44 19.04,57.89 12.69,17.44 34.62,34.62 65.81,51.54 31.19,16.91 72.68,35.42 124.48,55.5 69.78,25.37 127.65,53.65 173.64,84.84 45.99,31.19 80.87,67.39 104.66,108.63 23.8,41.23 35.68,90.91 35.68,149.06 0,66.61 -16.39,125.81 -49.15,177.61 -32.78,51.8 -78.5,92.24 -137.18,121.31 -58.67,29.07 -127.12,43.61 -205.36,43.61zm994.3 4.76c-105.72,0 -198.76,-24.32 -279.11,-72.95 -80.35,-48.63 -142.98,-116.29 -187.91,-202.98 -44.93,-86.69 -67.39,-188.19 -67.39,-304.47 0,-116.29 22.46,-217.52 67.39,-303.68 44.93,-86.16 107.57,-153.56 187.91,-202.19 80.35,-48.63 173.38,-72.94 279.11,-72.94 119.46,0 222.27,29.86 308.43,89.6 86.17,59.73 148.27,141.93 186.32,246.59l-214.08 77.7c-22.2,-62.37 -57.35,-110.74 -105.46,-145.09 -48.1,-34.36 -106.51,-51.54 -175.22,-51.54 -62.38,0 -116.83,14.54 -163.34,43.61 -46.52,29.07 -82.2,70.57 -107.04,124.48 -24.84,53.93 -37.27,118.41 -37.27,193.47 0,75.06 12.43,139.81 37.27,194.26 24.84,54.45 60.52,96.21 107.04,125.28 46.52,29.07 100.96,43.61 163.34,43.61 68.71,0 127.12,-17.44 175.22,-52.33 48.11,-34.89 83.26,-82.99 105.46,-144.31l214.08 77.7c-38.05,103.6 -100.16,185.54 -186.32,245.8 -86.16,60.26 -188.98,90.39 -308.43,90.39zm594.67 -26.96l0 -1105.3 226.77 0 0 431.33 453.53 0 0 -431.33 226.77 0 0 1105.3 -226.77 0 0 -466.22 -453.53 0 0 466.22 -226.77 0zm1557.25 26.96c-105.73,0 -198.76,-24.32 -279.11,-72.95 -80.35,-48.63 -142.98,-116.29 -187.91,-202.98 -44.93,-86.69 -67.39,-187.66 -67.39,-302.89 0,-116.29 22.46,-217.78 67.39,-304.47 44.93,-86.69 107.57,-154.34 187.91,-202.98 80.35,-48.63 173.38,-72.94 279.11,-72.94 106.77,0 200.33,24.05 280.68,72.15 80.35,48.1 142.99,115.49 187.91,202.19 44.93,86.69 67.41,188.71 67.41,306.06 0,116.29 -22.73,217.78 -68.19,304.47 -45.46,86.69 -108.36,154.08 -188.71,202.19 -80.35,48.1 -173.38,72.15 -279.09,72.15zm0 -217.26c63.43,0 117.87,-14.81 163.33,-44.41 45.46,-29.6 80.88,-71.63 106.24,-126.07 25.38,-54.45 38.06,-118.14 38.06,-191.09 0,-74 -12.69,-138.22 -38.06,-192.67 -25.37,-54.44 -60.78,-96.47 -106.24,-126.07 -45.46,-29.6 -100.44,-44.41 -164.93,-44.41 -61.31,0 -115.23,14.54 -161.75,43.61 -46.52,29.07 -82.2,70.57 -107.04,124.48 -24.84,53.93 -37.27,118.94 -37.27,195.06 0,75.06 12.43,139.55 37.27,193.47 24.84,53.91 60.52,95.41 107.04,124.48 46.52,29.07 100.96,43.61 163.34,43.61zm1143.35 217.26c-105.73,0 -198.76,-24.32 -279.11,-72.95 -80.35,-48.63 -142.98,-116.29 -187.91,-202.98 -44.93,-86.69 -67.39,-187.66 -67.39,-302.89 0,-116.29 22.46,-217.78 67.39,-304.47 44.93,-86.69 107.57,-154.34 187.91,-202.98 80.35,-48.63 173.38,-72.94 279.11,-72.94 106.77,0 200.33,24.05 280.68,72.15 80.35,48.1 142.99,115.49 187.91,202.19 44.93,86.69 67.41,188.71 67.41,306.06 0,116.29 -22.73,217.78 -68.19,304.47 -45.46,86.69 -108.36,154.08 -188.71,202.19 -80.35,48.1 -173.38,72.15 -279.09,72.15zm0 -217.26c63.43,0 117.87,-14.81 163.33,-44.41 45.46,-29.6 80.87,-71.63 106.24,-126.07 25.38,-54.45 38.06,-118.14 38.06,-191.09 0,-74 -12.69,-138.22 -38.06,-192.67 -25.37,-54.44 -60.78,-96.47 -106.24,-126.07 -45.46,-29.6 -100.44,-44.41 -164.93,-44.41 -61.31,0 -115.23,14.54 -161.75,43.61 -46.52,29.07 -82.2,70.57 -107.04,124.48 -24.84,53.93 -37.27,118.94 -37.27,195.06 0,75.06 12.43,139.55 37.27,193.47 24.84,53.91 60.52,95.41 107.04,124.48 46.52,29.07 100.96,43.61 163.34,43.61zm651.74 190.29l0 -1105.3 226.77 0 0 902.32 461.46 0 0 202.98 -688.24 0z"/>
   </g>
   <path class="fil10" d="M3529.17 7699.24c1.72,30.01 8.73,54.49 21.27,73.19 23.74,35.06 65.69,52.64 125.71,52.64 26.93,0 51.41,-3.81 73.55,-11.56 42.8,-14.88 64.09,-41.57 64.09,-79.95 0,-28.9 -8.98,-49.44 -26.94,-61.61 -18.33,-12.06 -46.86,-22.52 -85.85,-31.37l-71.71 -16.23c-46.86,-10.57 -79.94,-22.26 -99.38,-34.93 -33.7,-22.14 -50.43,-55.22 -50.43,-99.13 0,-47.6 16.35,-86.59 49.31,-117.09 32.96,-30.5 79.46,-45.76 139.85,-45.76 55.47,0 102.58,13.41 141.45,40.22 38.74,26.69 58.17,69.5 58.17,128.41l-67.4 0c-3.56,-28.41 -11.31,-50.06 -23.13,-65.19 -21.76,-27.68 -58.91,-41.45 -111.31,-41.45 -42.31,0 -72.7,8.86 -91.14,26.69 -18.57,17.71 -27.8,38.38 -27.8,61.87 0,25.95 10.82,45.01 32.47,56.94 14.15,7.75 46.25,17.35 96.19,28.91l74.29 16.85c35.79,8.24 63.34,19.44 82.9,33.58 33.58,24.72 50.43,60.64 50.43,107.75 0,58.55 -21.41,100.49 -63.96,125.7 -42.68,25.22 -92.25,37.89 -148.71,37.89 -65.8,0 -117.33,-16.85 -154.61,-50.43 -37.14,-33.46 -55.47,-78.72 -54.73,-135.92l67.41 0zm461.61 -358.54l72.45 0 0 529.39 -72.45 0 0 -529.39zm460.51 312.42l-80.32 -233.82 -85.48 233.82 165.8 0zm-117.84 -312.42l81.06 0 192.13 529.39 -78.59 0 -53.63 -158.55 -209.47 0 -57.19 158.55 -73.56 0 199.26 -529.39zm338.38 0l69.86 0 0 258.05 258.05 -258.05 99.14 0 -220.17 213.4 226.32 315.99 -93.35 0 -185.23 -265.56 -84.75 81.06 0 184.5 -69.86 0 0 -529.39zm763.95 312.42l-80.32 -233.82 -85.48 233.82 165.8 0zm-117.83 -312.42l81.05 0 192.13 529.39 -78.59 0 -53.63 -158.55 -209.48 0 -57.19 158.55 -73.56 0 199.26 -529.39zm541.57 468.13c24.35,0 44.28,-2.57 59.9,-7.62 27.8,-9.35 50.68,-27.31 68.39,-53.99 14.27,-21.41 24.47,-48.83 30.63,-82.17 3.69,-19.93 5.41,-38.5 5.41,-55.48 0,-65.56 -13.04,-116.48 -39.12,-152.76 -25.95,-36.28 -68.01,-54.49 -125.82,-54.49l-127.3 0 0 406.5 127.92 0zm-200 -468.13l214.51 0c72.7,0 129.15,25.83 169.37,77.49 35.79,46.62 53.63,106.27 53.63,179.08 0,56.21 -10.57,107.02 -31.73,152.41 -37.15,80.31 -101.23,120.41 -192,120.41l-213.78 0 0 -529.39zm741.69 0l238.13 0c47.11,0 85.12,13.29 113.89,39.85 28.79,26.57 43.3,63.83 43.3,111.93 0,41.33 -12.91,77.24 -38.62,107.87 -25.71,30.63 -65.19,46.01 -118.57,46.01l-166.42 0 0 223.73 -71.71 0 0 -529.39zm322.87 152.15c0,-38.99 -14.39,-65.44 -43.3,-79.33 -15.87,-7.51 -37.64,-11.19 -65.19,-11.19l-142.68 0 0 183.39 142.68 0c32.23,0 58.31,-6.76 78.35,-20.54 20.04,-13.66 30.13,-37.77 30.13,-72.32zm162.48 -152.15l71.7 0 0 466.29 268.14 0 0 63.1 -339.84 0 0 -529.39zm488.31 0l0 327.18c0,38.5 7.13,70.48 21.65,95.94 21.27,38.37 57.31,57.56 108.11,57.56 60.76,0 102.08,-20.67 123.86,-62.24 11.81,-22.63 17.71,-53.01 17.71,-91.26l0 -327.18 72.81 0 0 297.29c0,65.19 -8.86,115.24 -26.32,150.3 -32.23,63.83 -92.99,95.82 -182.41,95.82 -89.29,0 -149.93,-31.99 -181.91,-95.82 -17.59,-35.06 -26.31,-85.11 -26.31,-150.3l0 -297.29 72.81 0zm501.96 358.54c1.72,30.01 8.73,54.49 21.27,73.19 23.74,35.06 65.69,52.64 125.71,52.64 26.94,0 51.41,-3.81 73.55,-11.56 42.8,-14.88 64.08,-41.57 64.08,-79.95 0,-28.9 -8.98,-49.44 -26.93,-61.61 -18.33,-12.06 -46.87,-22.52 -85.86,-31.37l-71.7 -16.23c-46.87,-10.57 -79.94,-22.26 -99.38,-34.93 -33.7,-22.14 -50.43,-55.22 -50.43,-99.13 0,-47.6 16.35,-86.59 49.31,-117.09 32.96,-30.5 79.46,-45.76 139.85,-45.76 55.47,0 102.59,13.41 141.45,40.22 38.74,26.69 58.17,69.5 58.17,128.41l-67.41 0c-3.56,-28.41 -11.31,-50.06 -23.12,-65.19 -21.76,-27.68 -58.91,-41.45 -111.31,-41.45 -42.31,0 -72.7,8.86 -91.15,26.69 -18.57,17.71 -27.8,38.38 -27.8,61.87 0,25.95 10.82,45.01 32.47,56.94 14.15,7.75 46.25,17.35 96.19,28.91l74.29 16.85c35.79,8.24 63.34,19.44 82.9,33.58 33.58,24.72 50.43,60.64 50.43,107.75 0,58.55 -21.41,100.49 -63.96,125.7 -42.68,25.22 -92.26,37.89 -148.71,37.89 -65.8,0 -117.33,-16.85 -154.61,-50.43 -37.14,-33.46 -55.47,-78.72 -54.73,-135.92l67.4 0z"/>
  </g>
 </g>
</svg>
